<svg width="173" height="48" viewBox="0 0 173 48" fill="none" xmlns="http://www.w3.org/2000/svg">
<path d="M52.064 40V24.16H59C60.92 24.16 62.336 24.536 63.248 25.288C64.16 26.04 64.616 27.104 64.616 28.48C64.616 29.328 64.36 30.08 63.848 30.736C63.336 31.392 62.584 31.808 61.592 31.984V32.008C62.696 32.168 63.544 32.584 64.136 33.256C64.728 33.928 65.024 34.728 65.024 35.656C65.024 37.016 64.528 38.08 63.536 38.848C62.56 39.616 61.128 40 59.24 40H52.064ZM55.28 37.504H58.952C59.848 37.504 60.512 37.32 60.944 36.952C61.376 36.584 61.592 36.072 61.592 35.416C61.592 34.744 61.376 34.232 60.944 33.88C60.512 33.528 59.848 33.352 58.952 33.352H55.28V37.504ZM55.28 30.808H58.568C60.312 30.808 61.184 30.128 61.184 28.768C61.184 27.408 60.312 26.728 58.568 26.728H55.28V30.808ZM72.029 40.24C71.229 40.24 70.509 40.096 69.869 39.808C69.229 39.52 68.717 39.064 68.333 38.44C67.965 37.8 67.781 36.976 67.781 35.968V28H71.069V35.176C71.069 36.104 71.261 36.752 71.645 37.12C72.029 37.472 72.581 37.648 73.301 37.648C73.637 37.648 73.965 37.592 74.285 37.48C74.605 37.352 74.885 37.16 75.125 36.904C75.381 36.648 75.581 36.32 75.725 35.92C75.869 35.504 75.941 35.016 75.941 34.456V28H79.229V40H76.301L76.181 37.912C75.781 38.712 75.229 39.304 74.525 39.688C73.837 40.056 73.005 40.24 72.029 40.24ZM85.9289 22.744V36.304C85.9289 36.864 86.0249 37.256 86.2169 37.48C86.4089 37.704 86.7289 37.816 87.1769 37.816C87.4489 37.816 87.6729 37.8 87.8489 37.768C88.0249 37.72 88.2489 37.656 88.5209 37.576L88.2329 39.736C87.9609 39.896 87.6169 40.016 87.2009 40.096C86.8009 40.192 86.4009 40.24 86.0009 40.24C84.8329 40.24 83.9769 39.96 83.4329 39.4C82.9049 38.824 82.6409 37.912 82.6409 36.664V22.744H85.9289ZM94.529 40.24C93.729 40.24 93.009 40.096 92.369 39.808C91.729 39.52 91.217 39.064 90.833 38.44C90.465 37.8 90.281 36.976 90.281 35.968V28H93.569V35.176C93.569 36.104 93.761 36.752 94.145 37.12C94.529 37.472 95.081 37.648 95.801 37.648C96.137 37.648 96.465 37.592 96.785 37.48C97.105 37.352 97.385 37.16 97.625 36.904C97.881 36.648 98.081 36.32 98.225 35.92C98.369 35.504 98.441 35.016 98.441 34.456V28H101.729V40H98.801L98.681 37.912C98.281 38.712 97.729 39.304 97.025 39.688C96.337 40.056 95.505 40.24 94.529 40.24ZM109.725 40.24C108.733 40.24 107.845 39.992 107.061 39.496C106.293 39 105.685 38.288 105.237 37.36C104.805 36.432 104.589 35.32 104.589 34.024C104.589 32.696 104.821 31.568 105.285 30.64C105.749 29.696 106.373 28.984 107.157 28.504C107.957 28.008 108.853 27.76 109.845 27.76C110.901 27.76 111.773 28.064 112.461 28.672C113.149 29.28 113.597 30.064 113.805 31.024L113.493 31.408V22.744H116.781V40H113.829L113.613 36.352L114.021 36.544C113.909 37.296 113.653 37.952 113.253 38.512C112.853 39.056 112.349 39.48 111.741 39.784C111.133 40.088 110.461 40.24 109.725 40.24ZM110.685 37.72C111.261 37.72 111.757 37.576 112.173 37.288C112.589 36.984 112.909 36.544 113.133 35.968C113.373 35.392 113.493 34.704 113.493 33.904C113.493 33.136 113.381 32.488 113.157 31.96C112.933 31.416 112.613 31 112.197 30.712C111.781 30.424 111.293 30.28 110.733 30.28C109.837 30.28 109.133 30.6 108.621 31.24C108.125 31.864 107.877 32.784 107.877 34C107.877 35.216 108.125 36.144 108.621 36.784C109.117 37.408 109.805 37.72 110.685 37.72ZM134.748 23.92C136.316 23.92 137.668 24.248 138.804 24.904C139.94 25.56 140.812 26.496 141.42 27.712C142.044 28.928 142.356 30.384 142.356 32.08C142.356 33.776 142.044 35.232 141.42 36.448C140.812 37.664 139.94 38.6 138.804 39.256C137.668 39.912 136.316 40.24 134.748 40.24C133.18 40.24 131.82 39.912 130.668 39.256C129.532 38.6 128.652 37.664 128.028 36.448C127.42 35.232 127.116 33.776 127.116 32.08C127.116 30.384 127.42 28.928 128.028 27.712C128.652 26.496 129.532 25.56 130.668 24.904C131.82 24.248 133.18 23.92 134.748 23.92ZM134.748 26.632C133.852 26.632 133.092 26.84 132.468 27.256C131.844 27.672 131.364 28.288 131.028 29.104C130.708 29.904 130.548 30.896 130.548 32.08C130.548 33.248 130.708 34.24 131.028 35.056C131.364 35.872 131.844 36.488 132.468 36.904C133.092 37.32 133.852 37.528 134.748 37.528C135.628 37.528 136.38 37.32 137.004 36.904C137.628 36.488 138.1 35.872 138.42 35.056C138.756 34.24 138.924 33.248 138.924 32.08C138.924 30.896 138.756 29.904 138.42 29.104C138.1 28.288 137.628 27.672 137.004 27.256C136.38 26.84 135.628 26.632 134.748 26.632ZM145.291 40V28H148.243L148.435 31.6L148.027 31.216C148.219 30.432 148.523 29.784 148.939 29.272C149.355 28.76 149.859 28.384 150.451 28.144C151.059 27.888 151.723 27.76 152.443 27.76C153.275 27.76 154.011 27.92 154.651 28.24C155.307 28.56 155.819 29.048 156.187 29.704C156.571 30.344 156.763 31.152 156.763 32.128V40H153.475V33.064C153.475 32.04 153.275 31.336 152.875 30.952C152.475 30.552 151.955 30.352 151.315 30.352C150.867 30.352 150.427 30.464 149.995 30.688C149.579 30.896 149.235 31.24 148.963 31.72C148.707 32.2 148.579 32.84 148.579 33.64V40H145.291ZM165.718 40.24C164.454 40.24 163.35 39.992 162.406 39.496C161.478 39 160.758 38.288 160.246 37.36C159.734 36.432 159.478 35.312 159.478 34C159.478 32.688 159.734 31.568 160.246 30.64C160.758 29.712 161.47 29 162.382 28.504C163.31 28.008 164.366 27.76 165.55 27.76C166.766 27.76 167.798 28.008 168.646 28.504C169.494 28.984 170.142 29.648 170.59 30.496C171.038 31.328 171.262 32.28 171.262 33.352C171.262 33.672 171.254 33.976 171.238 34.264C171.222 34.552 171.198 34.808 171.166 35.032H161.59V32.752H169.726L168.142 33.328C168.142 32.32 167.91 31.544 167.446 31C166.998 30.456 166.358 30.184 165.526 30.184C164.918 30.184 164.39 30.328 163.942 30.616C163.51 30.904 163.182 31.336 162.958 31.912C162.734 32.472 162.622 33.184 162.622 34.048C162.622 34.896 162.742 35.6 162.982 36.16C163.238 36.704 163.59 37.112 164.038 37.384C164.502 37.656 165.054 37.792 165.694 37.792C166.398 37.792 166.966 37.656 167.398 37.384C167.83 37.112 168.166 36.736 168.406 36.256L171.022 37.264C170.766 37.888 170.374 38.424 169.846 38.872C169.334 39.32 168.718 39.664 167.998 39.904C167.294 40.128 166.534 40.24 165.718 40.24Z" fill="black"/>
<path d="M22 16C26.2435 16 30.3131 17.6857 33.3137 20.6863C36.3143 23.6869 38 27.7565 38 32C38 36.2435 36.3143 40.3131 33.3137 43.3137C30.3131 46.3143 26.2435 48 22 48L22 32L22 16Z" fill="#9F87F4"/>
<path d="M8 6.03983e-07C5.87827 5.11239e-07 3.84344 0.842855 2.34315 2.34315C0.842855 3.84344 4.42435e-07 5.87827 3.49691e-07 8C2.56947e-07 10.1217 0.842855 12.1566 2.34315 13.6569C3.84344 15.1571 5.87827 16 8 16L8 8L8 6.03983e-07Z" fill="#9F87F4"/>
<path d="M9 0C15.6274 0 21 5.37258 21 12V48C14.3726 48 9 42.6274 9 36V0Z" fill="#9F87F4"/>
</svg>
