<svg width="25" height="24" viewBox="0 0 25 24" fill="none" xmlns="http://www.w3.org/2000/svg">
<path d="M22.24 12.91C21.98 12.05 21.55 11.3 20.98 10.69C20.25 9.85998 19.28 9.28998 18.19 9.03998C17.64 6.53998 16.1 4.73998 13.91 4.06998C11.53 3.32998 8.77 4.04998 7.04 5.85998C5.52 7.44998 5.02 9.63998 5.61 11.97C3.61 12.46 2.62 14.13 2.51 15.72C2.5 15.83 2.5 15.93 2.5 16.03C2.5 17.91 3.73 20.02 6.47 20.22H16.85C18.27 20.22 19.63 19.69 20.67 18.74C22.3 17.31 22.9 15.08 22.24 12.91Z" fill="#49DBC8"/>
</svg>
