<svg width="74" height="74" viewBox="0 0 74 74" fill="none" xmlns="http://www.w3.org/2000/svg">
<path d="M37 0L37.6697 11.8442C38.1424 20.2052 48.068 24.3165 54.3144 18.7386L63.1629 10.837L55.2614 19.6857C49.6835 25.932 53.7948 35.8576 62.1558 36.3303L74 37L62.1558 37.6697C53.7948 38.1424 49.6835 48.068 55.2614 54.3144L63.1629 63.1629L54.3143 55.2614C48.068 49.6835 38.1424 53.7948 37.6697 62.1558L37 74L36.3303 62.1558C35.8576 53.7948 25.932 49.6835 19.6856 55.2614L10.837 63.1629L18.7386 54.3143C24.3165 48.068 20.2052 38.1424 11.8441 37.6697L0 37L11.8442 36.3303C20.2052 35.8576 24.3165 25.932 18.7386 19.6856L10.837 10.837L19.6857 18.7386C25.932 24.3165 35.8576 20.2052 36.3303 11.8441L37 0Z" fill="#FE9431"/>
</svg>
