<svg width="92" height="76" viewBox="0 0 92 76" fill="none" xmlns="http://www.w3.org/2000/svg">
<g filter="url(#filter0_d_1_118)">
<path d="M86.8405 39.9808C85.6967 36.2138 83.805 32.9287 81.2975 30.2568C78.0861 26.6212 73.8188 24.1245 69.0237 23.0294C66.6041 12.079 59.8293 4.19462 50.195 1.25989C39.7249 -1.98145 27.5831 1.17229 19.9724 9.10044C13.2856 16.0649 11.086 25.6576 13.6816 35.8634C4.88313 38.0097 0.527906 45.3246 0.0439921 52.2891C-4.09709e-08 52.771 0 53.209 0 53.647C0 61.8818 5.41103 71.124 17.4649 72H63.1287C69.3756 72 75.3585 69.6785 79.9337 65.5173C87.1044 59.2536 89.744 49.4858 86.8405 39.9808Z" fill="#F290E7"/>
<path d="M86.3621 40.1261L86.3623 40.1269C89.2115 49.4543 86.6188 59.014 79.6048 65.1408L79.6047 65.1407L79.5973 65.1474C75.1143 69.2247 69.2514 71.5 63.1287 71.5H17.4832C5.75341 70.6388 0.5 61.669 0.5 53.647C0.5 53.2069 0.50029 52.7906 0.541921 52.3346L0.542038 52.3346L0.542789 52.3238C1.01469 45.5321 5.25321 38.4341 13.8001 36.3492L14.2906 36.2295L14.1661 35.7402C11.6077 25.6801 13.7806 16.2713 20.3331 9.44672L20.3331 9.44669C27.8134 1.6544 39.7586 -1.44761 50.0472 1.73753L50.0493 1.73819C59.4865 4.61289 66.149 12.3367 68.5354 23.1373L68.6037 23.4464L68.9124 23.5169C73.6085 24.5893 77.7826 27.033 80.9227 30.5878L80.9277 30.5934L80.9329 30.5989C83.3855 33.2123 85.2396 36.4293 86.3621 40.1261Z" stroke="black"/>
</g>
<defs>
<filter id="filter0_d_1_118" x="0" y="0" width="92" height="76" filterUnits="userSpaceOnUse" color-interpolation-filters="sRGB">
<feFlood flood-opacity="0" result="BackgroundImageFix"/>
<feColorMatrix in="SourceAlpha" type="matrix" values="0 0 0 0 0 0 0 0 0 0 0 0 0 0 0 0 0 0 127 0" result="hardAlpha"/>
<feOffset dx="4" dy="4"/>
<feComposite in2="hardAlpha" operator="out"/>
<feColorMatrix type="matrix" values="0 0 0 0 0 0 0 0 0 0 0 0 0 0 0 0 0 0 1 0"/>
<feBlend mode="normal" in2="BackgroundImageFix" result="effect1_dropShadow_1_118"/>
<feBlend mode="normal" in="SourceGraphic" in2="effect1_dropShadow_1_118" result="shape"/>
</filter>
</defs>
</svg>
